HIERARCHY
ROOT Hips
{
	OFFSET -3.958830 18.904000 13.208200
	CHANNELS 6 Xposition Yposition Zposition Zrotation Yrotation Xrotation 
	JOINT LHipJoint
	{
		OFFSET 0.000000 0.000000 0.000000
		CHANNELS 3 Zrotation Yrotation Xrotation
		JOINT LeftUpLeg
		{
			OFFSET 1.800000 -1.400000 0.085000
			CHANNELS 3 Zrotation Yrotation Xrotation
			JOINT LeftLeg
			{
				OFFSET 2.215000 -6.000000 0.000000
				CHANNELS 3 Zrotation Yrotation Xrotation
				JOINT LeftFoot
				{
					OFFSET 2.500000 -6.900000 0.000000
					CHANNELS 3 Zrotation Yrotation Xrotation
					JOINT LeftToeBase
					{
						OFFSET 0.200000 -0.500000 1.950000
						CHANNELS 3 Zrotation Yrotation Xrotation
						End Site
						{
							OFFSET 0.000000 0.000000 0.000000
						}
					}
				}
			}
		}
	}
	JOINT RHipJoint
	{
		OFFSET 0.000000 0.000000 0.000000
		CHANNELS 3 Zrotation Yrotation Xrotation
		JOINT RightUpLeg
		{
			OFFSET -1.800000 -1.400000 0.085000
			CHANNELS 3 Zrotation Yrotation Xrotation
			JOINT RightLeg
			{
				OFFSET -2.215000 -6.000000 0.000000
				CHANNELS 3 Zrotation Yrotation Xrotation
				JOINT RightFoot
				{
					OFFSET -2.500000 -6.900000 0.000000
					CHANNELS 3 Zrotation Yrotation Xrotation
					JOINT RightToeBase
					{
						OFFSET -0.200000 -0.500000 1.950000
						CHANNELS 3 Zrotation Yrotation Xrotation
						End Site
						{
							OFFSET 0.000000 0.000000 0.000000
						}
					}
				}
			}
		}
	}
	JOINT LowerBack
	{
		OFFSET 0.000000 0.000000 0.000000
		CHANNELS 3 Zrotation Yrotation Xrotation
		JOINT Spine
		{
			OFFSET -0.087000 1.940000 -0.288900
			CHANNELS 3 Zrotation Yrotation Xrotation
			JOINT Spine1
			{
				OFFSET 0.000000 1.950000 0.060000
				CHANNELS 3 Zrotation Yrotation Xrotation
				JOINT Neck
				{
					OFFSET 0.000000 0.000000 0.000000
					CHANNELS 3 Zrotation Yrotation Xrotation
					JOINT Neck1
					{
						OFFSET 0.000000 1.600000 0.340000
						CHANNELS 3 Zrotation Yrotation Xrotation
						JOINT Head
						{
							OFFSET 0.000000 1.667000 -0.240000
							CHANNELS 3 Zrotation Yrotation Xrotation
							End Site
							{
								OFFSET 0.000000 0.000000 0.000000
							}
						}
					}
				}
				JOINT LeftShoulder
				{
					OFFSET 0.000000 0.000000 0.000000
					CHANNELS 3 Zrotation Yrotation Xrotation
					JOINT LeftArm
					{
						OFFSET 2.700000 1.550000 -0.730000
						CHANNELS 3 Zrotation Yrotation Xrotation
						JOINT LeftForeArm
						{
							OFFSET 5.450000 0.000000 0.000000
							CHANNELS 3 Zrotation Yrotation Xrotation
							JOINT LeftHand
							{
								OFFSET 3.450000 0.000000 0.000000
								CHANNELS 3 Zrotation Yrotation Xrotation
								JOINT LeftHandIndex1
								{
									OFFSET 0.750000 0.000000 0.000000
									CHANNELS 3 Zrotation Yrotation Xrotation
									End Site
									{
										OFFSET 0.000000 0.000000 0.000000
									}
								}
							}
						}
					}
				}
				JOINT RightShoulder
				{
					OFFSET 0.000000 0.000000 0.000000
					CHANNELS 3 Zrotation Yrotation Xrotation
					JOINT RightArm
					{
						OFFSET -2.700000 1.550000 -0.730000
						CHANNELS 3 Zrotation Yrotation Xrotation
						JOINT RightForeArm
						{
							OFFSET -5.450000 0.000000 0.000000
							CHANNELS 3 Zrotation Yrotation Xrotation
							JOINT RightHand
							{
								OFFSET -3.450000 0.000000 0.000000
								CHANNELS 3 Zrotation Yrotation Xrotation
								JOINT RightHandIndex1
								{
									OFFSET -0.750000 0.000000 0.000000
									CHANNELS 3 Zrotation Yrotation Xrotation
									End Site
									{
										OFFSET 0.000000 0.000000 0.000000
									}
								}
							}
						}
					}
				}
			}
		}
	}
}
MOTION
Frames: 6
Frame Time: 0.016667
1.205600 16.115450 -1.080900 -0.954553 13.128798 -2.377143 -15.099563 12.827838 3.336169 -5.334342 -5.620405 -21.586018 6.216997 3.208061 37.399451 -0.600253 5.508707 2.478018 0.572300 0.392710 0.473700 18.439539 -10.006667 4.060720 1.071340 7.295244 -42.136072 -5.466078 -2.907831 33.255285 -0.396987 -3.329104 2.993514 0.307970 -0.028160 0.108650 -4.189648 -1.639193 -8.287428 12.280072 -7.015010 17.160561 -12.251176 -3.196254 7.761067 7.016435 -2.999307 -10.546151 -6.940752 3.027804 39.884688 -3.332900 0.790560 -22.449140 -31.208268 -20.391414 5.423778 -49.213483 -11.599561 -6.158398 5.927046 -23.230880 -3.565290 -3.467416 2.770323 0.820080 -0.137440 0.233580 0.074630 16.811000 24.239928 6.334872 63.996960 18.489317 -4.677772 -0.488096 20.016306 -1.846392 2.059037 -1.155538 -0.254570 0.415180 0.028120 -0.305310 
1.197200 16.073230 -1.070630 -0.980189 12.804466 -2.033709 -15.100243 12.770074 3.393522 -5.281371 -5.920985 -22.173986 6.163152 3.301958 38.439884 -0.563325 5.701669 2.416090 0.537210 0.353760 0.441550 18.439613 -10.035788 3.997514 0.692870 6.820926 -42.165291 -4.408852 -2.925130 29.041806 -0.273297 -2.740844 3.209073 0.291320 0.004430 0.111280 -4.182685 -1.520369 -8.257306 12.157673 -6.673785 16.652415 -12.180983 -3.050766 7.293933 6.982239 -2.714626 -10.042536 -6.199328 2.812925 39.228872 -3.302780 0.913150 -21.459220 -30.634170 -19.267022 4.912730 -50.004219 -12.056445 -5.821354 5.733986 -23.436402 -3.538091 -3.513982 2.764799 0.796020 -0.108850 0.202610 0.073530 16.306851 22.820477 6.071118 65.759761 18.270604 -5.125792 -1.902017 21.081097 -2.291257 2.043952 -1.169746 -0.265770 0.408670 0.046420 -0.300250 
1.181300 16.004740 -1.054120 -0.915806 12.191154 -1.511284 -15.118835 12.671256 3.497838 -5.370073 -6.452181 -23.158476 6.232241 3.384956 40.106634 -0.506164 6.015318 2.315069 0.481960 0.281810 0.403930 18.427299 -10.038890 3.905483 -0.121078 6.077154 -41.988314 -2.455424 -2.858053 21.613797 -0.099472 -1.875353 3.532942 0.259380 0.047020 0.118780 -4.124536 -1.389046 -8.242012 11.642076 -6.024307 16.096621 -11.724208 -2.759654 6.531467 6.812909 -2.175806 -9.422977 -4.998295 2.238040 38.053962 -3.643680 1.069270 -19.962350 -29.274733 -17.631083 4.175735 -51.578202 -12.794101 -5.242503 5.008889 -23.955526 -3.448772 -3.585003 2.757311 0.764130 -0.065260 0.154350 0.064180 15.319907 20.679415 5.790187 68.277876 17.636099 -6.190119 -3.850449 23.489971 -3.082510 2.012256 -1.189131 -0.284600 0.391340 0.076200 -0.302300 
1.163490 15.959970 -1.048480 -1.382397 11.343135 -1.397574 -15.110507 12.591051 3.521138 -4.677775 -6.802307 -23.921697 5.856016 3.707534 41.489117 -0.445826 6.309122 2.214786 0.436250 0.225150 0.372550 18.438852 -9.989333 3.886691 -1.196179 5.597014 -41.109907 0.431627 -2.637162 12.886244 0.019209 -1.215734 3.789337 0.227250 0.076940 0.125570 -4.139357 -1.291166 -8.273816 11.931428 -5.528309 15.827385 -11.377554 -2.407620 6.224219 6.599430 -1.817044 -9.291816 -4.333481 2.146685 37.989827 -3.534220 1.343500 -18.759770 -28.477237 -17.116671 3.930457 -52.332332 -13.397672 -4.910493 4.660157 -24.447145 -3.439262 -3.627860 2.756243 0.741390 -0.038210 0.124160 0.053830 14.933838 19.808766 5.816023 69.607557 17.000791 -7.336253 -6.274094 25.403712 -3.918698 1.987141 -1.194385 -0.291880 0.376680 0.101390 -0.299790 
1.135020 15.922800 -1.035150 -1.821070 9.983145 -0.841992 -15.097474 12.428588 3.446627 -3.735900 -6.880415 -24.778304 5.070986 4.292878 42.225794 -0.385358 6.524687 2.148974 0.383920 0.175670 0.306930 18.484055 -9.825264 4.008872 -2.201406 5.661955 -40.874556 2.716138 -2.093767 4.900851 0.080306 -1.005746 3.894058 0.199990 0.135210 0.134180 -4.191122 -1.153953 -8.314498 12.257551 -4.930489 15.252365 -10.822474 -2.017721 5.629494 6.010859 -1.968828 -8.895391 -4.452043 2.349411 36.768506 -2.967990 1.432310 -17.143900 -26.444605 -15.462462 3.426947 -54.433633 -13.771308 -4.668770 3.523013 -26.503698 -3.393845 -3.681403 2.767980 0.688130 0.005210 0.076160 0.058760 14.062515 18.122566 5.559776 71.065599 16.545906 -7.839399 -7.188976 26.944523 -4.391660 1.978059 -1.213063 -0.291780 0.364550 0.129890 -0.273760 
1.101130 15.920410 -1.027680 -2.081335 8.971137 -0.631116 -15.088013 12.321720 3.339128 -2.868984 -6.761794 -24.943021 4.185313 4.853284 42.091067 -0.349651 6.597243 2.137757 0.333720 0.129220 0.252080 18.511179 -9.683244 4.151318 -3.851431 5.601000 -40.651771 4.364961 -1.599002 -0.837479 0.084996 -1.124437 3.881405 0.170090 0.185750 0.138350 -4.224376 -1.072814 -8.374008 12.257710 -4.314219 15.060275 -10.220040 -1.563029 5.334624 5.374538 -1.806069 -8.842939 -4.174255 2.312514 36.324918 -2.592890 1.505350 -15.638510 -24.698187 -14.718789 3.364945 -54.902080 -13.828373 -4.631618 0.694106 -29.003343 -2.895570 -3.718797 2.780150 0.644010 0.045030 0.036920 0.060560 13.587555 17.177998 5.491820 71.919265 15.918083 -8.430399 -8.194697 28.114087 -4.821544 1.967195 -1.219599 -0.292080 0.358740 0.153870 -0.252420 
